<?xml version="1.0" encoding="UTF-8"?>
<svg xmlns="http://www.w3.org/2000/svg" xmlns:xlink="http://www.w3.org/1999/xlink" width="2384" height="1684" viewBox="0 0 2384 1684">
<defs>
<clipPath id="clip-0">
<path clip-rule="nonzero" d="M 1361 596 L 1991 596 L 1991 1456 L 1361 1456 Z M 1361 596 "/>
</clipPath>
<clipPath id="clip-1">
<path clip-rule="nonzero" d="M 1728.660156 1455.101562 C 1728.609375 1455.101562 1728.550781 1455.101562 1728.5 1455.101562 L 1403.550781 1453.871094 C 1374.128906 1453.761719 1353.769531 1424.429688 1363.941406 1396.820312 L 1450.328125 1162.398438 C 1452.039062 1171.480469 1453.671875 1180.019531 1455.210938 1187.910156 C 1442.550781 1212.53125 1439.820312 1233.660156 1449.730469 1247.089844 C 1456.871094 1256.769531 1469.78125 1261.359375 1486.628906 1261.359375 C 1526.320312 1261.359375 1587.929688 1235.941406 1647.96875 1191.671875 C 1733.5 1128.589844 1783.429688 1051.121094 1759.480469 1018.648438 C 1754.570312 1011.988281 1746.941406 1007.738281 1737.171875 1005.738281 C 1736.359375 998.328125 1735.800781 993.308594 1735.800781 993.308594 C 1735.800781 993.308594 1736.289062 993.328125 1737.199219 993.328125 C 1747.589844 993.328125 1812.589844 990.660156 1814.519531 924.03125 C 1816.621094 851.609375 1797.730469 686.800781 1737.898438 664.761719 C 1678.058594 642.71875 1649.71875 640.621094 1649.71875 640.621094 C 1649.71875 640.621094 1649.339844 642.28125 1648.660156 645.359375 C 1648.660156 645.359375 1646.378906 644.289062 1641.839844 642.769531 C 1647.851562 627.769531 1661.890625 617.449219 1678.070312 616.261719 L 1945.328125 596.480469 C 1946.421875 596.398438 1947.511719 596.359375 1948.578125 596.359375 C 1971 596.359375 1988.78125 613.78125 1990.710938 634.851562 C 1991.171875 639.859375 1990.730469 645.089844 1989.238281 650.328125 L 1769.441406 1424.289062 C 1764.25 1442.53125 1747.601562 1455.101562 1728.660156 1455.101562 "/>
</clipPath>
<clipPath id="clip-2">
<path clip-rule="nonzero" d="M 1728.660156 1455.101562 C 1728.609375 1455.101562 1728.550781 1455.101562 1728.5 1455.101562 L 1403.550781 1453.871094 C 1374.128906 1453.761719 1353.769531 1424.429688 1363.941406 1396.820312 L 1450.328125 1162.398438 C 1452.039062 1171.480469 1453.671875 1180.019531 1455.210938 1187.910156 C 1442.550781 1212.53125 1439.820312 1233.660156 1449.730469 1247.089844 C 1456.871094 1256.769531 1469.78125 1261.359375 1486.628906 1261.359375 C 1526.320312 1261.359375 1587.929688 1235.941406 1647.96875 1191.671875 C 1733.5 1128.589844 1783.429688 1051.121094 1759.480469 1018.648438 C 1754.570312 1011.988281 1746.941406 1007.738281 1737.171875 1005.738281 C 1736.359375 998.328125 1735.800781 993.308594 1735.800781 993.308594 C 1735.800781 993.308594 1736.289062 993.328125 1737.199219 993.328125 C 1747.589844 993.328125 1812.589844 990.660156 1814.519531 924.03125 C 1816.621094 851.609375 1797.730469 686.800781 1737.898438 664.761719 C 1678.058594 642.71875 1649.71875 640.621094 1649.71875 640.621094 C 1649.71875 640.621094 1649.339844 642.28125 1648.660156 645.359375 C 1648.660156 645.359375 1646.378906 644.289062 1641.839844 642.769531 C 1647.851562 627.769531 1661.890625 617.449219 1678.070312 616.261719 L 1945.328125 596.480469 C 1946.421875 596.398438 1947.511719 596.359375 1948.578125 596.359375 C 1971 596.359375 1988.78125 613.78125 1990.710938 634.851562 C 1991.171875 639.859375 1990.730469 645.089844 1989.238281 650.328125 L 1769.441406 1424.289062 C 1764.25 1442.53125 1747.601562 1455.101562 1728.660156 1455.101562 "/>
</clipPath>
<linearGradient id="linear-pattern-0" gradientUnits="userSpaceOnUse" x1="0.00651072" y1="0" x2="1.015719" y2="0" gradientTransform="matrix(0, 850.905, -850.905, 0, 1676.09, 590.82)">
<stop offset="0" stop-color="rgb(99.488831%, 99.77417%, 99.983215%)" stop-opacity="1"/>
<stop offset="0.00390625" stop-color="rgb(99.179077%, 99.638367%, 99.97406%)" stop-opacity="1"/>
<stop offset="0.0078125" stop-color="rgb(98.87085%, 99.502563%, 99.964905%)" stop-opacity="1"/>
<stop offset="0.0117188" stop-color="rgb(98.561096%, 99.36676%, 99.95575%)" stop-opacity="1"/>
<stop offset="0.015625" stop-color="rgb(98.251343%, 99.230957%, 99.946594%)" stop-opacity="1"/>
<stop offset="0.0195312" stop-color="rgb(97.941589%, 99.093628%, 99.937439%)" stop-opacity="1"/>
<stop offset="0.0234375" stop-color="rgb(97.633362%, 98.957825%, 99.928284%)" stop-opacity="1"/>
<stop offset="0.0273437" stop-color="rgb(97.323608%, 98.822021%, 99.919128%)" stop-opacity="1"/>
<stop offset="0.03125" stop-color="rgb(97.015381%, 98.686218%, 99.909973%)" stop-opacity="1"/>
<stop offset="0.0351562" stop-color="rgb(96.705627%, 98.550415%, 99.900818%)" stop-opacity="1"/>
<stop offset="0.0390625" stop-color="rgb(96.3974%, 98.414612%, 99.891663%)" stop-opacity="1"/>
<stop offset="0.0429688" stop-color="rgb(96.087646%, 98.277283%, 99.882507%)" stop-opacity="1"/>
<stop offset="0.046875" stop-color="rgb(95.777893%, 98.141479%, 99.873352%)" stop-opacity="1"/>
<stop offset="0.0507812" stop-color="rgb(95.46814%, 98.005676%, 99.862671%)" stop-opacity="1"/>
<stop offset="0.0546875" stop-color="rgb(95.159912%, 97.869873%, 99.853516%)" stop-opacity="1"/>
<stop offset="0.0585938" stop-color="rgb(94.850159%, 97.73407%, 99.84436%)" stop-opacity="1"/>
<stop offset="0.0625" stop-color="rgb(94.541931%, 97.598267%, 99.835205%)" stop-opacity="1"/>
<stop offset="0.0664063" stop-color="rgb(94.232178%, 97.460938%, 99.82605%)" stop-opacity="1"/>
<stop offset="0.0703125" stop-color="rgb(93.922424%, 97.325134%, 99.816895%)" stop-opacity="1"/>
<stop offset="0.0742188" stop-color="rgb(93.612671%, 97.189331%, 99.807739%)" stop-opacity="1"/>
<stop offset="0.078125" stop-color="rgb(93.304443%, 97.053528%, 99.798584%)" stop-opacity="1"/>
<stop offset="0.0820312" stop-color="rgb(92.99469%, 96.917725%, 99.789429%)" stop-opacity="1"/>
<stop offset="0.0859375" stop-color="rgb(92.686462%, 96.781921%, 99.780273%)" stop-opacity="1"/>
<stop offset="0.0898438" stop-color="rgb(92.376709%, 96.644592%, 99.771118%)" stop-opacity="1"/>
<stop offset="0.09375" stop-color="rgb(92.068481%, 96.508789%, 99.761963%)" stop-opacity="1"/>
<stop offset="0.0976562" stop-color="rgb(91.758728%, 96.372986%, 99.751282%)" stop-opacity="1"/>
<stop offset="0.101562" stop-color="rgb(91.448975%, 96.237183%, 99.742126%)" stop-opacity="1"/>
<stop offset="0.105469" stop-color="rgb(91.139221%, 96.101379%, 99.732971%)" stop-opacity="1"/>
<stop offset="0.109375" stop-color="rgb(90.830994%, 95.965576%, 99.723816%)" stop-opacity="1"/>
<stop offset="0.113281" stop-color="rgb(90.52124%, 95.828247%, 99.714661%)" stop-opacity="1"/>
<stop offset="0.117188" stop-color="rgb(90.213013%, 95.692444%, 99.705505%)" stop-opacity="1"/>
<stop offset="0.121094" stop-color="rgb(89.903259%, 95.556641%, 99.69635%)" stop-opacity="1"/>
<stop offset="0.125" stop-color="rgb(89.595032%, 95.420837%, 99.687195%)" stop-opacity="1"/>
<stop offset="0.128906" stop-color="rgb(89.285278%, 95.285034%, 99.67804%)" stop-opacity="1"/>
<stop offset="0.132813" stop-color="rgb(88.975525%, 95.149231%, 99.668884%)" stop-opacity="1"/>
<stop offset="0.136719" stop-color="rgb(88.665771%, 95.013428%, 99.659729%)" stop-opacity="1"/>
<stop offset="0.140625" stop-color="rgb(88.357544%, 94.877625%, 99.650574%)" stop-opacity="1"/>
<stop offset="0.144531" stop-color="rgb(88.047791%, 94.740295%, 99.639893%)" stop-opacity="1"/>
<stop offset="0.148438" stop-color="rgb(87.739563%, 94.604492%, 99.630737%)" stop-opacity="1"/>
<stop offset="0.152344" stop-color="rgb(87.42981%, 94.468689%, 99.621582%)" stop-opacity="1"/>
<stop offset="0.15625" stop-color="rgb(87.121582%, 94.332886%, 99.612427%)" stop-opacity="1"/>
<stop offset="0.160156" stop-color="rgb(86.811829%, 94.197083%, 99.603271%)" stop-opacity="1"/>
<stop offset="0.164062" stop-color="rgb(86.502075%, 94.061279%, 99.594116%)" stop-opacity="1"/>
<stop offset="0.167969" stop-color="rgb(86.192322%, 93.92395%, 99.584961%)" stop-opacity="1"/>
<stop offset="0.171875" stop-color="rgb(85.884094%, 93.788147%, 99.575806%)" stop-opacity="1"/>
<stop offset="0.175781" stop-color="rgb(85.574341%, 93.652344%, 99.56665%)" stop-opacity="1"/>
<stop offset="0.179688" stop-color="rgb(85.266113%, 93.516541%, 99.557495%)" stop-opacity="1"/>
<stop offset="0.183594" stop-color="rgb(84.95636%, 93.380737%, 99.54834%)" stop-opacity="1"/>
<stop offset="0.1875" stop-color="rgb(84.646606%, 93.244934%, 99.539185%)" stop-opacity="1"/>
<stop offset="0.191406" stop-color="rgb(84.336853%, 93.107605%, 99.530029%)" stop-opacity="1"/>
<stop offset="0.195312" stop-color="rgb(84.028625%, 92.971802%, 99.520874%)" stop-opacity="1"/>
<stop offset="0.199219" stop-color="rgb(83.718872%, 92.835999%, 99.510193%)" stop-opacity="1"/>
<stop offset="0.203125" stop-color="rgb(83.410645%, 92.700195%, 99.501038%)" stop-opacity="1"/>
<stop offset="0.207031" stop-color="rgb(83.100891%, 92.564392%, 99.491882%)" stop-opacity="1"/>
<stop offset="0.210938" stop-color="rgb(82.792664%, 92.428589%, 99.482727%)" stop-opacity="1"/>
<stop offset="0.214844" stop-color="rgb(82.48291%, 92.29126%, 99.473572%)" stop-opacity="1"/>
<stop offset="0.21875" stop-color="rgb(82.173157%, 92.155457%, 99.464417%)" stop-opacity="1"/>
<stop offset="0.222656" stop-color="rgb(81.863403%, 92.019653%, 99.455261%)" stop-opacity="1"/>
<stop offset="0.226563" stop-color="rgb(81.555176%, 91.88385%, 99.446106%)" stop-opacity="1"/>
<stop offset="0.230469" stop-color="rgb(81.245422%, 91.748047%, 99.436951%)" stop-opacity="1"/>
<stop offset="0.234375" stop-color="rgb(80.937195%, 91.612244%, 99.427795%)" stop-opacity="1"/>
<stop offset="0.238281" stop-color="rgb(80.627441%, 91.474915%, 99.41864%)" stop-opacity="1"/>
<stop offset="0.242188" stop-color="rgb(80.319214%, 91.339111%, 99.409485%)" stop-opacity="1"/>
<stop offset="0.246094" stop-color="rgb(80.00946%, 91.203308%, 99.398804%)" stop-opacity="1"/>
<stop offset="0.25" stop-color="rgb(79.699707%, 91.067505%, 99.389648%)" stop-opacity="1"/>
<stop offset="0.253906" stop-color="rgb(79.389954%, 90.931702%, 99.380493%)" stop-opacity="1"/>
<stop offset="0.257813" stop-color="rgb(79.081726%, 90.795898%, 99.371338%)" stop-opacity="1"/>
<stop offset="0.261719" stop-color="rgb(78.771973%, 90.658569%, 99.362183%)" stop-opacity="1"/>
<stop offset="0.265625" stop-color="rgb(78.463745%, 90.522766%, 99.353027%)" stop-opacity="1"/>
<stop offset="0.269531" stop-color="rgb(78.153992%, 90.386963%, 99.343872%)" stop-opacity="1"/>
<stop offset="0.273438" stop-color="rgb(77.845764%, 90.25116%, 99.334717%)" stop-opacity="1"/>
<stop offset="0.277344" stop-color="rgb(77.536011%, 90.115356%, 99.325562%)" stop-opacity="1"/>
<stop offset="0.28125" stop-color="rgb(77.226257%, 89.979553%, 99.316406%)" stop-opacity="1"/>
<stop offset="0.285156" stop-color="rgb(76.916504%, 89.84375%, 99.307251%)" stop-opacity="1"/>
<stop offset="0.289062" stop-color="rgb(76.608276%, 89.707947%, 99.298096%)" stop-opacity="1"/>
<stop offset="0.292969" stop-color="rgb(76.298523%, 89.570618%, 99.287415%)" stop-opacity="1"/>
<stop offset="0.296875" stop-color="rgb(75.990295%, 89.434814%, 99.278259%)" stop-opacity="1"/>
<stop offset="0.300781" stop-color="rgb(75.680542%, 89.299011%, 99.269104%)" stop-opacity="1"/>
<stop offset="0.304688" stop-color="rgb(75.370789%, 89.163208%, 99.259949%)" stop-opacity="1"/>
<stop offset="0.308594" stop-color="rgb(75.061035%, 89.027405%, 99.250793%)" stop-opacity="1"/>
<stop offset="0.3125" stop-color="rgb(74.752808%, 88.891602%, 99.241638%)" stop-opacity="1"/>
<stop offset="0.316406" stop-color="rgb(74.443054%, 88.754272%, 99.232483%)" stop-opacity="1"/>
<stop offset="0.320312" stop-color="rgb(74.134827%, 88.618469%, 99.223328%)" stop-opacity="1"/>
<stop offset="0.324219" stop-color="rgb(73.825073%, 88.482666%, 99.214172%)" stop-opacity="1"/>
<stop offset="0.328125" stop-color="rgb(73.516846%, 88.346863%, 99.205017%)" stop-opacity="1"/>
<stop offset="0.332031" stop-color="rgb(73.207092%, 88.21106%, 99.195862%)" stop-opacity="1"/>
<stop offset="0.335937" stop-color="rgb(72.897339%, 88.075256%, 99.186707%)" stop-opacity="1"/>
<stop offset="0.339844" stop-color="rgb(72.587585%, 87.937927%, 99.177551%)" stop-opacity="1"/>
<stop offset="0.34375" stop-color="rgb(72.279358%, 87.802124%, 99.168396%)" stop-opacity="1"/>
<stop offset="0.347656" stop-color="rgb(71.969604%, 87.666321%, 99.157715%)" stop-opacity="1"/>
<stop offset="0.351563" stop-color="rgb(71.661377%, 87.530518%, 99.14856%)" stop-opacity="1"/>
<stop offset="0.355469" stop-color="rgb(71.351624%, 87.394714%, 99.139404%)" stop-opacity="1"/>
<stop offset="0.359375" stop-color="rgb(71.043396%, 87.258911%, 99.130249%)" stop-opacity="1"/>
<stop offset="0.363281" stop-color="rgb(70.733643%, 87.121582%, 99.121094%)" stop-opacity="1"/>
<stop offset="0.367188" stop-color="rgb(70.423889%, 86.985779%, 99.111938%)" stop-opacity="1"/>
<stop offset="0.371094" stop-color="rgb(70.114136%, 86.849976%, 99.102783%)" stop-opacity="1"/>
<stop offset="0.375" stop-color="rgb(69.805908%, 86.714172%, 99.093628%)" stop-opacity="1"/>
<stop offset="0.378906" stop-color="rgb(69.496155%, 86.578369%, 99.084473%)" stop-opacity="1"/>
<stop offset="0.382812" stop-color="rgb(69.187927%, 86.442566%, 99.075317%)" stop-opacity="1"/>
<stop offset="0.386719" stop-color="rgb(68.878174%, 86.305237%, 99.066162%)" stop-opacity="1"/>
<stop offset="0.390625" stop-color="rgb(68.569946%, 86.169434%, 99.057007%)" stop-opacity="1"/>
<stop offset="0.394531" stop-color="rgb(68.260193%, 86.03363%, 99.046326%)" stop-opacity="1"/>
<stop offset="0.398438" stop-color="rgb(67.950439%, 85.897827%, 99.03717%)" stop-opacity="1"/>
<stop offset="0.402344" stop-color="rgb(67.640686%, 85.762024%, 99.028015%)" stop-opacity="1"/>
<stop offset="0.40625" stop-color="rgb(67.332458%, 85.626221%, 99.01886%)" stop-opacity="1"/>
<stop offset="0.410156" stop-color="rgb(67.022705%, 85.488892%, 99.009705%)" stop-opacity="1"/>
<stop offset="0.414062" stop-color="rgb(66.714478%, 85.353088%, 99.000549%)" stop-opacity="1"/>
<stop offset="0.417969" stop-color="rgb(66.404724%, 85.217285%, 98.991394%)" stop-opacity="1"/>
<stop offset="0.421875" stop-color="rgb(66.094971%, 85.081482%, 98.982239%)" stop-opacity="1"/>
<stop offset="0.425781" stop-color="rgb(65.785217%, 84.945679%, 98.973083%)" stop-opacity="1"/>
<stop offset="0.429687" stop-color="rgb(65.47699%, 84.809875%, 98.963928%)" stop-opacity="1"/>
<stop offset="0.433594" stop-color="rgb(65.167236%, 84.672546%, 98.954773%)" stop-opacity="1"/>
<stop offset="0.4375" stop-color="rgb(64.859009%, 84.536743%, 98.945618%)" stop-opacity="1"/>
<stop offset="0.441406" stop-color="rgb(64.549255%, 84.40094%, 98.934937%)" stop-opacity="1"/>
<stop offset="0.445313" stop-color="rgb(64.241028%, 84.265137%, 98.925781%)" stop-opacity="1"/>
<stop offset="0.449219" stop-color="rgb(63.931274%, 84.129333%, 98.916626%)" stop-opacity="1"/>
<stop offset="0.453125" stop-color="rgb(63.621521%, 83.99353%, 98.907471%)" stop-opacity="1"/>
<stop offset="0.457031" stop-color="rgb(63.311768%, 83.857727%, 98.898315%)" stop-opacity="1"/>
<stop offset="0.460938" stop-color="rgb(63.00354%, 83.721924%, 98.88916%)" stop-opacity="1"/>
<stop offset="0.464844" stop-color="rgb(62.693787%, 83.584595%, 98.880005%)" stop-opacity="1"/>
<stop offset="0.46875" stop-color="rgb(62.385559%, 83.448792%, 98.87085%)" stop-opacity="1"/>
<stop offset="0.472656" stop-color="rgb(62.075806%, 83.312988%, 98.861694%)" stop-opacity="1"/>
<stop offset="0.476562" stop-color="rgb(61.767578%, 83.177185%, 98.852539%)" stop-opacity="1"/>
<stop offset="0.480469" stop-color="rgb(61.457825%, 83.041382%, 98.843384%)" stop-opacity="1"/>
<stop offset="0.484375" stop-color="rgb(61.148071%, 82.905579%, 98.834229%)" stop-opacity="1"/>
<stop offset="0.488281" stop-color="rgb(60.838318%, 82.76825%, 98.825073%)" stop-opacity="1"/>
<stop offset="0.492188" stop-color="rgb(60.53009%, 82.632446%, 98.815918%)" stop-opacity="1"/>
<stop offset="0.496094" stop-color="rgb(60.220337%, 82.496643%, 98.805237%)" stop-opacity="1"/>
<stop offset="0.5" stop-color="rgb(59.912109%, 82.36084%, 98.796082%)" stop-opacity="1"/>
<stop offset="0.503906" stop-color="rgb(59.602356%, 82.225037%, 98.786926%)" stop-opacity="1"/>
<stop offset="0.507813" stop-color="rgb(59.294128%, 82.089233%, 98.777771%)" stop-opacity="1"/>
<stop offset="0.511719" stop-color="rgb(58.984375%, 81.951904%, 98.768616%)" stop-opacity="1"/>
<stop offset="0.515625" stop-color="rgb(58.674622%, 81.816101%, 98.75946%)" stop-opacity="1"/>
<stop offset="0.519531" stop-color="rgb(58.364868%, 81.680298%, 98.750305%)" stop-opacity="1"/>
<stop offset="0.523438" stop-color="rgb(58.056641%, 81.544495%, 98.74115%)" stop-opacity="1"/>
<stop offset="0.527344" stop-color="rgb(57.746887%, 81.408691%, 98.731995%)" stop-opacity="1"/>
<stop offset="0.53125" stop-color="rgb(57.43866%, 81.272888%, 98.722839%)" stop-opacity="1"/>
<stop offset="0.535156" stop-color="rgb(57.128906%, 81.135559%, 98.713684%)" stop-opacity="1"/>
<stop offset="0.539063" stop-color="rgb(56.819153%, 80.999756%, 98.704529%)" stop-opacity="1"/>
<stop offset="0.542969" stop-color="rgb(56.509399%, 80.863953%, 98.693848%)" stop-opacity="1"/>
<stop offset="0.546875" stop-color="rgb(56.201172%, 80.728149%, 98.684692%)" stop-opacity="1"/>
<stop offset="0.550781" stop-color="rgb(55.891418%, 80.592346%, 98.675537%)" stop-opacity="1"/>
<stop offset="0.554688" stop-color="rgb(55.583191%, 80.456543%, 98.666382%)" stop-opacity="1"/>
<stop offset="0.558594" stop-color="rgb(55.273438%, 80.319214%, 98.657227%)" stop-opacity="1"/>
<stop offset="0.5625" stop-color="rgb(54.96521%, 80.183411%, 98.648071%)" stop-opacity="1"/>
<stop offset="0.566406" stop-color="rgb(54.655457%, 80.047607%, 98.638916%)" stop-opacity="1"/>
<stop offset="0.570312" stop-color="rgb(54.345703%, 79.911804%, 98.629761%)" stop-opacity="1"/>
<stop offset="0.574219" stop-color="rgb(54.03595%, 79.776001%, 98.620605%)" stop-opacity="1"/>
<stop offset="0.578125" stop-color="rgb(53.727722%, 79.640198%, 98.61145%)" stop-opacity="1"/>
<stop offset="0.582031" stop-color="rgb(53.417969%, 79.502869%, 98.602295%)" stop-opacity="1"/>
<stop offset="0.585938" stop-color="rgb(53.109741%, 79.367065%, 98.59314%)" stop-opacity="1"/>
<stop offset="0.589844" stop-color="rgb(52.799988%, 79.231262%, 98.582458%)" stop-opacity="1"/>
<stop offset="0.59375" stop-color="rgb(52.49176%, 79.095459%, 98.573303%)" stop-opacity="1"/>
<stop offset="0.597656" stop-color="rgb(52.182007%, 78.959656%, 98.564148%)" stop-opacity="1"/>
<stop offset="0.601562" stop-color="rgb(51.872253%, 78.823853%, 98.554993%)" stop-opacity="1"/>
<stop offset="0.605469" stop-color="rgb(51.5625%, 78.688049%, 98.545837%)" stop-opacity="1"/>
<stop offset="0.609375" stop-color="rgb(51.254272%, 78.552246%, 98.536682%)" stop-opacity="1"/>
<stop offset="0.613281" stop-color="rgb(50.944519%, 78.414917%, 98.527527%)" stop-opacity="1"/>
<stop offset="0.617188" stop-color="rgb(50.636292%, 78.279114%, 98.518372%)" stop-opacity="1"/>
<stop offset="0.621094" stop-color="rgb(50.326538%, 78.143311%, 98.509216%)" stop-opacity="1"/>
<stop offset="0.625" stop-color="rgb(50.018311%, 78.007507%, 98.500061%)" stop-opacity="1"/>
<stop offset="0.628906" stop-color="rgb(49.708557%, 77.871704%, 98.490906%)" stop-opacity="1"/>
<stop offset="0.632812" stop-color="rgb(49.398804%, 77.735901%, 98.48175%)" stop-opacity="1"/>
<stop offset="0.636719" stop-color="rgb(49.08905%, 77.598572%, 98.472595%)" stop-opacity="1"/>
<stop offset="0.640625" stop-color="rgb(48.780823%, 77.462769%, 98.46344%)" stop-opacity="1"/>
<stop offset="0.644531" stop-color="rgb(48.471069%, 77.326965%, 98.452759%)" stop-opacity="1"/>
<stop offset="0.648438" stop-color="rgb(48.162842%, 77.191162%, 98.443604%)" stop-opacity="1"/>
<stop offset="0.652344" stop-color="rgb(47.853088%, 77.055359%, 98.434448%)" stop-opacity="1"/>
<stop offset="0.65625" stop-color="rgb(47.543335%, 76.919556%, 98.425293%)" stop-opacity="1"/>
<stop offset="0.660156" stop-color="rgb(47.233582%, 76.782227%, 98.416138%)" stop-opacity="1"/>
<stop offset="0.664062" stop-color="rgb(46.925354%, 76.646423%, 98.406982%)" stop-opacity="1"/>
<stop offset="0.667969" stop-color="rgb(46.615601%, 76.51062%, 98.397827%)" stop-opacity="1"/>
<stop offset="0.671875" stop-color="rgb(46.307373%, 76.374817%, 98.388672%)" stop-opacity="1"/>
<stop offset="0.675781" stop-color="rgb(45.99762%, 76.239014%, 98.379517%)" stop-opacity="1"/>
<stop offset="0.679687" stop-color="rgb(45.689392%, 76.10321%, 98.370361%)" stop-opacity="1"/>
<stop offset="0.683594" stop-color="rgb(45.379639%, 75.965881%, 98.361206%)" stop-opacity="1"/>
<stop offset="0.6875" stop-color="rgb(45.069885%, 75.830078%, 98.352051%)" stop-opacity="1"/>
<stop offset="0.691406" stop-color="rgb(44.760132%, 75.694275%, 98.34137%)" stop-opacity="1"/>
<stop offset="0.695313" stop-color="rgb(44.451904%, 75.558472%, 98.332214%)" stop-opacity="1"/>
<stop offset="0.699219" stop-color="rgb(44.142151%, 75.422668%, 98.323059%)" stop-opacity="1"/>
<stop offset="0.703125" stop-color="rgb(43.833923%, 75.286865%, 98.313904%)" stop-opacity="1"/>
<stop offset="0.707031" stop-color="rgb(43.52417%, 75.149536%, 98.304749%)" stop-opacity="1"/>
<stop offset="0.710938" stop-color="rgb(43.215942%, 75.013733%, 98.295593%)" stop-opacity="1"/>
<stop offset="0.714844" stop-color="rgb(42.906189%, 74.87793%, 98.286438%)" stop-opacity="1"/>
<stop offset="0.71875" stop-color="rgb(42.596436%, 74.742126%, 98.277283%)" stop-opacity="1"/>
<stop offset="0.722656" stop-color="rgb(42.286682%, 74.606323%, 98.268127%)" stop-opacity="1"/>
<stop offset="0.726563" stop-color="rgb(41.978455%, 74.47052%, 98.258972%)" stop-opacity="1"/>
<stop offset="0.730469" stop-color="rgb(41.668701%, 74.333191%, 98.249817%)" stop-opacity="1"/>
<stop offset="0.734375" stop-color="rgb(41.360474%, 74.197388%, 98.240662%)" stop-opacity="1"/>
<stop offset="0.738281" stop-color="rgb(41.05072%, 74.061584%, 98.22998%)" stop-opacity="1"/>
<stop offset="0.742188" stop-color="rgb(40.742493%, 73.925781%, 98.220825%)" stop-opacity="1"/>
<stop offset="0.746094" stop-color="rgb(40.432739%, 73.789978%, 98.21167%)" stop-opacity="1"/>
<stop offset="0.75" stop-color="rgb(40.122986%, 73.654175%, 98.202515%)" stop-opacity="1"/>
<stop offset="0.753906" stop-color="rgb(39.813232%, 73.516846%, 98.193359%)" stop-opacity="1"/>
<stop offset="0.757812" stop-color="rgb(39.505005%, 73.381042%, 98.184204%)" stop-opacity="1"/>
<stop offset="0.761719" stop-color="rgb(39.195251%, 73.245239%, 98.175049%)" stop-opacity="1"/>
<stop offset="0.765625" stop-color="rgb(38.887024%, 73.109436%, 98.165894%)" stop-opacity="1"/>
<stop offset="0.769531" stop-color="rgb(38.577271%, 72.973633%, 98.156738%)" stop-opacity="1"/>
<stop offset="0.773438" stop-color="rgb(38.267517%, 72.83783%, 98.147583%)" stop-opacity="1"/>
<stop offset="0.777344" stop-color="rgb(37.957764%, 72.702026%, 98.138428%)" stop-opacity="1"/>
<stop offset="0.78125" stop-color="rgb(37.649536%, 72.566223%, 98.129272%)" stop-opacity="1"/>
<stop offset="0.785156" stop-color="rgb(37.339783%, 72.428894%, 98.120117%)" stop-opacity="1"/>
<stop offset="0.789062" stop-color="rgb(37.031555%, 72.293091%, 98.110962%)" stop-opacity="1"/>
<stop offset="0.792969" stop-color="rgb(36.721802%, 72.157288%, 98.100281%)" stop-opacity="1"/>
<stop offset="0.796875" stop-color="rgb(36.413574%, 72.021484%, 98.091125%)" stop-opacity="1"/>
<stop offset="0.800781" stop-color="rgb(36.103821%, 71.885681%, 98.08197%)" stop-opacity="1"/>
<stop offset="0.804688" stop-color="rgb(35.794067%, 71.749878%, 98.072815%)" stop-opacity="1"/>
<stop offset="0.808594" stop-color="rgb(35.484314%, 71.612549%, 98.06366%)" stop-opacity="1"/>
<stop offset="0.8125" stop-color="rgb(35.176086%, 71.476746%, 98.054504%)" stop-opacity="1"/>
<stop offset="0.816406" stop-color="rgb(34.866333%, 71.340942%, 98.045349%)" stop-opacity="1"/>
<stop offset="0.820312" stop-color="rgb(34.558105%, 71.205139%, 98.036194%)" stop-opacity="1"/>
<stop offset="0.824219" stop-color="rgb(34.248352%, 71.069336%, 98.027039%)" stop-opacity="1"/>
<stop offset="0.828125" stop-color="rgb(33.940125%, 70.933533%, 98.017883%)" stop-opacity="1"/>
<stop offset="0.832031" stop-color="rgb(33.630371%, 70.796204%, 98.008728%)" stop-opacity="1"/>
<stop offset="0.835938" stop-color="rgb(33.320618%, 70.6604%, 97.999573%)" stop-opacity="1"/>
<stop offset="0.839844" stop-color="rgb(33.010864%, 70.524597%, 97.988892%)" stop-opacity="1"/>
<stop offset="0.84375" stop-color="rgb(32.702637%, 70.388794%, 97.979736%)" stop-opacity="1"/>
<stop offset="0.847656" stop-color="rgb(32.392883%, 70.252991%, 97.970581%)" stop-opacity="1"/>
<stop offset="0.851562" stop-color="rgb(32.084656%, 70.117188%, 97.961426%)" stop-opacity="1"/>
<stop offset="0.855469" stop-color="rgb(31.774902%, 69.979858%, 97.952271%)" stop-opacity="1"/>
<stop offset="0.859375" stop-color="rgb(31.466675%, 69.844055%, 97.943115%)" stop-opacity="1"/>
<stop offset="0.863281" stop-color="rgb(31.156921%, 69.708252%, 97.93396%)" stop-opacity="1"/>
<stop offset="0.867187" stop-color="rgb(30.847168%, 69.572449%, 97.924805%)" stop-opacity="1"/>
<stop offset="0.871094" stop-color="rgb(30.537415%, 69.436646%, 97.915649%)" stop-opacity="1"/>
<stop offset="0.875" stop-color="rgb(30.229187%, 69.300842%, 97.906494%)" stop-opacity="1"/>
<stop offset="0.878906" stop-color="rgb(29.919434%, 69.163513%, 97.897339%)" stop-opacity="1"/>
<stop offset="0.882813" stop-color="rgb(29.611206%, 69.02771%, 97.888184%)" stop-opacity="1"/>
<stop offset="0.886719" stop-color="rgb(29.301453%, 68.891907%, 97.877502%)" stop-opacity="1"/>
<stop offset="0.890625" stop-color="rgb(28.991699%, 68.756104%, 97.868347%)" stop-opacity="1"/>
<stop offset="0.894531" stop-color="rgb(28.681946%, 68.6203%, 97.859192%)" stop-opacity="1"/>
<stop offset="0.898438" stop-color="rgb(28.373718%, 68.484497%, 97.850037%)" stop-opacity="1"/>
<stop offset="0.902344" stop-color="rgb(28.063965%, 68.347168%, 97.840881%)" stop-opacity="1"/>
<stop offset="0.90625" stop-color="rgb(27.755737%, 68.211365%, 97.831726%)" stop-opacity="1"/>
<stop offset="0.910156" stop-color="rgb(27.445984%, 68.075562%, 97.822571%)" stop-opacity="1"/>
<stop offset="0.914063" stop-color="rgb(27.137756%, 67.939758%, 97.813416%)" stop-opacity="1"/>
<stop offset="0.917969" stop-color="rgb(26.828003%, 67.803955%, 97.80426%)" stop-opacity="1"/>
<stop offset="0.921875" stop-color="rgb(26.51825%, 67.668152%, 97.795105%)" stop-opacity="1"/>
<stop offset="0.925781" stop-color="rgb(26.208496%, 67.532349%, 97.78595%)" stop-opacity="1"/>
<stop offset="0.929688" stop-color="rgb(25.900269%, 67.396545%, 97.776794%)" stop-opacity="1"/>
<stop offset="0.933594" stop-color="rgb(25.590515%, 67.259216%, 97.767639%)" stop-opacity="1"/>
<stop offset="0.9375" stop-color="rgb(25.282288%, 67.123413%, 97.758484%)" stop-opacity="1"/>
<stop offset="0.941406" stop-color="rgb(24.972534%, 66.98761%, 97.747803%)" stop-opacity="1"/>
<stop offset="0.945313" stop-color="rgb(24.664307%, 66.851807%, 97.738647%)" stop-opacity="1"/>
<stop offset="0.949219" stop-color="rgb(24.354553%, 66.716003%, 97.729492%)" stop-opacity="1"/>
<stop offset="0.953125" stop-color="rgb(24.0448%, 66.5802%, 97.720337%)" stop-opacity="1"/>
<stop offset="0.957031" stop-color="rgb(23.735046%, 66.442871%, 97.711182%)" stop-opacity="1"/>
<stop offset="0.960938" stop-color="rgb(23.426819%, 66.307068%, 97.702026%)" stop-opacity="1"/>
<stop offset="0.964844" stop-color="rgb(23.117065%, 66.171265%, 97.692871%)" stop-opacity="1"/>
<stop offset="0.96875" stop-color="rgb(22.808838%, 66.035461%, 97.683716%)" stop-opacity="1"/>
<stop offset="0.972656" stop-color="rgb(22.499084%, 65.899658%, 97.674561%)" stop-opacity="1"/>
<stop offset="0.976562" stop-color="rgb(22.190857%, 65.763855%, 97.665405%)" stop-opacity="1"/>
<stop offset="0.980469" stop-color="rgb(21.881104%, 65.626526%, 97.65625%)" stop-opacity="1"/>
<stop offset="0.984375" stop-color="rgb(21.57135%, 65.490723%, 97.647095%)" stop-opacity="1"/>
<stop offset="1" stop-color="rgb(21.569824%, 65.489197%, 97.647095%)" stop-opacity="1"/>
</linearGradient>
</defs>
<path fill-rule="nonzero" fill="rgb(35.301208%, 48.631287%, 57.617188%)" fill-opacity="1" d="M 2211.859375 1519.859375 C 2211.859375 1544 1938.089844 1563.570312 1600.378906 1563.570312 C 1262.671875 1563.570312 988.902344 1544 988.902344 1519.859375 C 988.902344 1495.710938 1262.671875 1476.140625 1600.378906 1476.140625 C 1938.089844 1476.140625 2211.859375 1495.710938 2211.859375 1519.859375 "/>
<path fill-rule="nonzero" fill="rgb(66.209412%, 91.014099%, 91.796875%)" fill-opacity="1" d="M 1065.710938 511.53125 C 940.144531 529.449219 810.230469 552.21875 706.328125 624.980469 C 554.761719 731.109375 575.210938 920.84375 576.460938 953.902344 C 581.542969 1087.898438 649.433594 1186.421875 684.429688 1229.289062 C 859 1443.128906 1167.121094 1438.429688 1497.300781 1433.730469 C 1646.148438 1431.609375 1799.488281 1429.488281 1947.089844 1447.398438 C 1966 1449.691406 2017.289062 1453.859375 2076.859375 1435.078125 C 2170.160156 1405.660156 2230.21875 1315.398438 2269.488281 1225.800781 C 2388.820312 953.539062 2379.320312 623.871094 2228.050781 367.960938 C 2191.839844 306.699219 2147.519531 249.269531 2091.199219 205.75 C 1916.089844 70.449219 1665.75 93.019531 1460.789062 129.988281 C 1347.320312 150.460938 1215.460938 151.359375 1119.398438 222.699219 C 1033.921875 286.171875 982.695312 423.769531 1065.710938 511.53125 "/>
<path fill-rule="nonzero" fill="rgb(8.227539%, 39.598083%, 60.742188%)" fill-opacity="1" d="M 1371.859375 1507.570312 L 1771.351562 1513.089844 C 1793.898438 1513.398438 1816.519531 1494.148438 1823.648438 1468.78125 L 2076.800781 567.019531 C 2083.171875 544.339844 2066.449219 524.160156 2043.03125 526.128906 L 1705.78125 554.550781 C 1687.011719 556.128906 1669.511719 569.390625 1662.980469 587.078125 L 1343 1453.640625 C 1332.550781 1481.949219 1346 1507.210938 1371.859375 1507.570312 "/>
<path fill-rule="nonzero" fill="rgb(10.594177%, 45.872498%, 73.631287%)" fill-opacity="1" d="M 1337.730469 1507.558594 L 1738.921875 1513.089844 C 1761.570312 1513.398438 1784.371094 1494.109375 1791.640625 1468.679688 L 2049.898438 565.320312 C 2056.398438 542.601562 2039.710938 522.390625 2016.191406 524.359375 L 1677.488281 552.78125 C 1658.628906 554.359375 1641 567.628906 1634.359375 585.359375 L 1309.011719 1453.511719 C 1298.371094 1481.890625 1311.761719 1507.199219 1337.730469 1507.558594 "/>
<g clip-path="url(#clip-0)">
<g clip-path="url(#clip-1)">
<g clip-path="url(#clip-2)">
<path fill-rule="nonzero" fill="url(#linear-pattern-0)" d="M 1991.171875 596.359375 L 1353.769531 596.359375 L 1353.769531 1455.101562 L 1991.171875 1455.101562 Z M 1991.171875 596.359375 "/>
</g>
</g>
</g>
<path fill-rule="nonzero" fill="rgb(31.37207%, 68.164062%, 86.71875%)" fill-opacity="1" d="M 1449.730469 1247.089844 C 1473.671875 1279.558594 1562.429688 1254.75 1647.96875 1191.671875 C 1733.5 1128.589844 1783.429688 1051.121094 1759.480469 1018.648438 C 1735.539062 986.179688 1646.78125 1010.988281 1561.238281 1074.070312 C 1475.710938 1137.148438 1425.78125 1214.609375 1449.730469 1247.089844 "/>
<path fill-rule="nonzero" fill="rgb(39.988708%, 17.651367%, 56.834412%)" fill-opacity="1" d="M 1814.519531 924.03125 C 1812.421875 996.460938 1735.800781 993.308594 1735.800781 993.308594 C 1735.800781 993.308594 1743.148438 1059.441406 1743.148438 1065.738281 C 1720.050781 1104.578125 1643.421875 1169.660156 1643.421875 1169.660156 C 1643.960938 1173.570312 1535.039062 1238.621094 1532.609375 1239.128906 C 1532.921875 1240.089844 1511.941406 1253.691406 1485.078125 1248.558594 C 1479.46875 1247.5 1473.589844 1245.601562 1467.601562 1242.609375 C 1463.378906 1240.5 1420.421875 1006.941406 1406.441406 892.429688 C 1380.628906 905.039062 1343.859375 922.601562 1301.570312 895.859375 C 1249.839844 863.140625 1263.511719 790.789062 1240.710938 688.429688 C 1239.910156 684.800781 1243.859375 656.960938 1253.570312 652.429688 C 1272.859375 643.429688 1292.578125 636.089844 1317.859375 653.289062 C 1322.601562 656.511719 1323.578125 668.140625 1337.570312 711.140625 C 1354.640625 763.609375 1353.140625 791.140625 1360.710938 792.140625 C 1374.710938 794 1377.078125 699.621094 1437.691406 656.890625 C 1467.328125 635.988281 1501.539062 634.050781 1522.710938 634.839844 C 1538.621094 633.03125 1553.050781 632.300781 1565.988281 632.300781 C 1620.691406 632.300781 1648.660156 645.359375 1648.660156 645.359375 C 1649.339844 642.28125 1649.71875 640.621094 1649.71875 640.621094 C 1649.71875 640.621094 1678.058594 642.71875 1737.898438 664.761719 C 1797.730469 686.800781 1816.621094 851.609375 1814.519531 924.03125 "/>
<path fill-rule="nonzero" fill="rgb(97.65625%, 76.951599%, 78.514099%)" fill-opacity="1" d="M 1548.289062 956.988281 L 1521.398438 963.285156 C 1521.398438 963.285156 1462.351562 931.621094 1461.171875 939.972656 C 1459.988281 948.328125 1479.28125 963.285156 1479.28125 963.285156 C 1479.28125 963.285156 1474.058594 971.550781 1448.921875 973.914062 C 1439.640625 974.785156 1431.789062 973.980469 1425.75 973.179688 C 1415.441406 971.804688 1410.378906 970.433594 1412.359375 977.414062 C 1415.511719 988.480469 1449.5 986.117188 1449.5 986.117188 C 1449.5 986.117188 1439.128906 991.234375 1426.140625 991.234375 C 1413.148438 991.234375 1406.058594 982.96875 1406.460938 994.382812 C 1406.851562 1005.800781 1457.238281 999.894531 1457.238281 999.894531 C 1457.238281 999.894531 1426.929688 1000.289062 1430.46875 1006.980469 C 1434.011719 1013.671875 1463.53125 1008.949219 1463.53125 1008.949219 C 1463.53125 1008.949219 1434.011719 1013.671875 1443.070312 1018.390625 C 1452.121094 1023.121094 1478.101562 1022.71875 1490.300781 1014.851562 C 1502.5 1006.980469 1502.898438 1002.648438 1518.640625 1001.859375 C 1534.390625 1001.070312 1561.160156 1000.289062 1561.160156 1000.289062 C 1561.160156 1000.289062 1581.089844 961.316406 1548.289062 956.988281 "/>
<path fill-rule="nonzero" fill="rgb(92.96875%, 69.726562%, 72.851562%)" fill-opacity="1" d="M 1532.03125 617.128906 L 1532.03125 655.710938 C 1532.03125 655.710938 1551.710938 677.359375 1579.660156 676.570312 C 1607.601562 675.78125 1621.800781 646.648438 1622.960938 642.320312 C 1624.121094 637.988281 1610.359375 572.589844 1610.359375 572.589844 L 1532.03125 617.128906 "/>
<path fill-rule="nonzero" fill="rgb(97.65625%, 76.951599%, 78.514099%)" fill-opacity="1" d="M 1475.738281 469.519531 C 1475.738281 469.519531 1480.738281 544.230469 1482.710938 561.019531 C 1484.289062 574.398438 1506.941406 626.179688 1550.378906 613.589844 C 1593.828125 600.988281 1623.738281 578.160156 1630.039062 559.269531 C 1636.339844 540.371094 1641.851562 469.519531 1630.039062 449.050781 C 1618.230469 428.578125 1495.421875 415.199219 1478.890625 425.429688 C 1462.351562 435.671875 1475.738281 469.519531 1475.738281 469.519531 "/>
<path fill-rule="nonzero" fill="rgb(36.083984%, 16.088867%, 51.756287%)" fill-opacity="1" d="M 1558.601562 942.578125 L 1685.570312 900.144531 L 1695.859375 781.574219 L 1708.800781 912.140625 L 1558.601562 942.578125 "/>
<path fill-rule="nonzero" fill="rgb(36.083984%, 16.088867%, 51.756287%)" fill-opacity="1" d="M 1742.550781 1057.660156 L 1560.261719 1017.820312 C 1560.441406 1017.621094 1560.640625 1017.390625 1560.839844 1017.148438 L 1735.800781 993.3125 L 1742.550781 1057.660156 M 1558.871094 1017.511719 L 1558.601562 1017.460938 L 1558.878906 1017.421875 L 1558.871094 1017.511719 "/>
<path fill-rule="nonzero" fill="rgb(11.767578%, 17.651367%, 30.979919%)" fill-opacity="1" d="M 1118.160156 421.820312 C 1108.921875 444.929688 1112.871094 468.230469 1126.980469 473.871094 C 1141.089844 479.511719 1160.019531 465.351562 1169.261719 442.25 C 1178.488281 419.148438 1174.539062 395.851562 1160.429688 390.210938 C 1146.320312 384.558594 1127.398438 398.71875 1118.160156 421.820312 "/>
<path fill-rule="nonzero" fill="rgb(100%, 100%, 100%)" fill-opacity="1" d="M 1304.691406 434.578125 L 1262.039062 541.039062 L 1104.46875 563.671875 L 1206.300781 309.429688 L 1304.691406 434.578125 "/>
<path fill-rule="nonzero" fill="rgb(90.234375%, 90.625%, 91.014099%)" fill-opacity="1" d="M 1104.46875 563.671875 L 1262.039062 541.039062 L 1283.339844 487.859375 L 1156.261719 506.109375 L 1225.351562 333.648438 L 1206.308594 309.429688 L 1104.46875 563.671875 "/>
<path fill-rule="nonzero" fill="rgb(11.767578%, 17.651367%, 30.979919%)" fill-opacity="1" d="M 1235.839844 597.03125 L 1281.191406 530.859375 L 1303.859375 539.921875 L 1241.660156 628.230469 C 1231.441406 621.21875 1228.828125 607.25 1235.839844 597.03125 "/>
<path fill-rule="nonzero" fill="rgb(17.651367%, 26.268005%, 45.872498%)" fill-opacity="1" d="M 1303.859375 539.921875 L 1323.898438 547.929688 L 1272.851562 622.398438 C 1265.851562 632.621094 1251.878906 635.230469 1241.660156 628.230469 L 1303.859375 539.921875 "/>
<path fill-rule="nonzero" fill="rgb(11.767578%, 17.651367%, 30.979919%)" fill-opacity="1" d="M 1346.78125 515.941406 C 1344.160156 522.488281 1347.351562 529.929688 1353.910156 532.550781 C 1360.460938 535.171875 1367.898438 531.980469 1370.519531 525.429688 L 1375.558594 512.808594 C 1378.179688 506.25 1374.988281 498.808594 1368.441406 496.199219 C 1361.890625 493.570312 1354.449219 496.761719 1351.828125 503.320312 L 1346.78125 515.941406 "/>
<path fill-rule="nonzero" fill="rgb(78.90625%, 13.719177%, 20.384216%)" fill-opacity="1" d="M 1364.171875 520.128906 L 1358.238281 534.96875 C 1349.75 556.210938 1325.648438 566.539062 1304.410156 558.050781 L 1262.070312 541.121094 L 1283.371094 487.828125 L 1364.171875 520.128906 "/>
<path fill-rule="nonzero" fill="rgb(94.53125%, 16.479492%, 24.705505%)" fill-opacity="1" d="M 1304.679688 434.53125 L 1347.03125 451.460938 C 1368.261719 459.949219 1378.601562 484.050781 1370.109375 505.289062 L 1364.171875 520.128906 L 1283.371094 487.828125 L 1304.679688 434.53125 "/>
<path fill-rule="nonzero" fill="rgb(94.53125%, 16.479492%, 24.705505%)" fill-opacity="1" d="M 1206.300781 309.429688 L 1104.46875 563.671875 L 1092.929688 559.050781 L 1194.601562 304.738281 L 1206.300781 309.429688 "/>
<path fill-rule="nonzero" fill="rgb(78.90625%, 13.719177%, 20.384216%)" fill-opacity="1" d="M 1183.058594 300.121094 L 1194.601562 304.738281 L 1092.929688 559.050781 L 1081.230469 554.359375 L 1183.058594 300.121094 "/>
<path fill-rule="nonzero" fill="rgb(97.65625%, 76.951599%, 78.514099%)" fill-opacity="1" d="M 1290.578125 574.238281 C 1287.28125 578.789062 1280.921875 579.800781 1276.371094 576.5 L 1256.429688 562.011719 C 1251.878906 558.710938 1250.871094 552.351562 1254.171875 547.800781 C 1257.46875 543.25 1263.839844 542.238281 1268.390625 545.539062 L 1288.328125 560.03125 C 1292.878906 563.328125 1293.890625 569.691406 1290.578125 574.238281 "/>
<path fill-rule="nonzero" fill="rgb(97.65625%, 76.951599%, 78.514099%)" fill-opacity="1" d="M 1277.96875 591.621094 C 1274.660156 596.160156 1268.300781 597.171875 1263.75 593.871094 L 1243.808594 579.390625 C 1239.261719 576.089844 1238.25 569.71875 1241.550781 565.171875 C 1244.859375 560.628906 1251.21875 559.621094 1255.769531 562.921875 L 1275.710938 577.398438 C 1280.261719 580.699219 1281.269531 587.070312 1277.96875 591.621094 "/>
<path fill-rule="nonzero" fill="rgb(97.65625%, 76.951599%, 78.514099%)" fill-opacity="1" d="M 1267.128906 609.578125 C 1263.828125 614.128906 1257.460938 615.140625 1252.921875 611.828125 L 1232.96875 597.351562 C 1228.421875 594.050781 1227.421875 587.691406 1230.71875 583.140625 C 1234.019531 578.589844 1240.378906 577.578125 1244.929688 580.878906 L 1264.878906 595.359375 C 1269.421875 598.671875 1270.429688 605.03125 1267.128906 609.578125 "/>
<path fill-rule="nonzero" fill="rgb(97.65625%, 76.951599%, 78.514099%)" fill-opacity="1" d="M 1255.421875 628.109375 C 1252.109375 632.660156 1245.75 633.671875 1241.199219 630.359375 L 1221.261719 615.878906 C 1216.710938 612.578125 1215.699219 606.210938 1219 601.671875 C 1222.308594 597.121094 1228.671875 596.109375 1233.21875 599.410156 L 1253.160156 613.890625 C 1257.710938 617.199219 1258.71875 623.558594 1255.421875 628.109375 "/>
<path fill-rule="nonzero" fill="rgb(97.65625%, 76.951599%, 78.514099%)" fill-opacity="1" d="M 1311.941406 649.640625 L 1323.898438 567.859375 C 1323.898438 567.859375 1318.429688 536.929688 1303.859375 533.46875 C 1289.289062 530.011719 1300.429688 559.050781 1300.429688 559.050781 C 1300.429688 559.050781 1305.25 575.128906 1297.78125 586.039062 C 1290.300781 596.941406 1269.371094 633.351562 1255.289062 631.859375 C 1241.199219 630.359375 1253.570312 652.429688 1253.570312 652.429688 L 1311.941406 649.640625 "/>
<path fill-rule="nonzero" fill="rgb(23.535156%, 14.109802%, 8.227539%)" fill-opacity="1" d="M 1457.429688 403.679688 C 1458.96875 387.28125 1467.449219 372.058594 1478.800781 360.128906 C 1490.160156 348.191406 1504.289062 339.238281 1518.828125 331.488281 C 1511.378906 338.71875 1506.648438 348.691406 1505.761719 359.039062 C 1536.039062 345.511719 1570.671875 347.398438 1603.769531 349.539062 C 1591.179688 351.359375 1579.289062 357.71875 1570.789062 367.179688 C 1594.839844 362.320312 1619.210938 372.980469 1640.359375 385.398438 C 1646.769531 389.160156 1653.160156 393.191406 1658.050781 398.78125 C 1663.339844 404.808594 1666.578125 412.328125 1669.390625 419.839844 C 1681.988281 453.519531 1686.480469 471 1684.589844 484.648438 C 1684.390625 486.078125 1679.640625 499.148438 1670.140625 525.289062 C 1665.550781 537.929688 1663.878906 542.28125 1660.078125 547.199219 C 1650.449219 559.679688 1636.039062 564.25 1626.808594 566.140625 C 1629.390625 556.191406 1631.761719 543.058594 1631.859375 527.570312 C 1631.929688 515.421875 1630.898438 523.21875 1629.210938 514.640625 C 1620.640625 514.980469 1615.289062 514.859375 1611.449219 512.25 C 1611.601562 498.421875 1611.761719 484.578125 1611.910156 470.75 C 1611.988281 463.570312 1611.738281 455.539062 1606.640625 450.480469 C 1602.128906 446 1595.191406 445.28125 1588.839844 444.890625 C 1567.230469 443.570312 1545.570312 443.089844 1523.921875 443.480469 C 1514.328125 443.648438 1504.628906 444 1495.378906 446.589844 C 1482.660156 450.140625 1472.710938 462.75 1465.828125 447.25 C 1459.921875 433.949219 1456.050781 418.269531 1457.429688 403.679688 "/>
<path fill-rule="nonzero" fill="rgb(97.65625%, 76.951599%, 78.514099%)" fill-opacity="1" d="M 1650.710938 513.730469 C 1650.710938 528.191406 1642.78125 539.921875 1633 539.921875 C 1623.21875 539.921875 1615.289062 528.191406 1615.289062 513.730469 C 1615.289062 499.261719 1623.21875 487.539062 1633 487.539062 C 1642.78125 487.539062 1650.710938 499.261719 1650.710938 513.730469 "/>
<path fill-rule="nonzero" fill="rgb(94.53125%, 94.921875%, 94.921875%)" fill-opacity="1" d="M 1502.140625 539.921875 L 1571.078125 533.46875 C 1571.078125 533.46875 1547.140625 630.980469 1502.140625 539.921875 "/>
<path fill-rule="nonzero" fill="rgb(36.083984%, 16.088867%, 51.756287%)" fill-opacity="1" d="M 1485.078125 1248.558594 C 1479.46875 1247.5 1473.589844 1245.601562 1467.601562 1242.609375 C 1464.488281 1241.050781 1440.339844 1113.789062 1422.25 1001.109375 C 1425.148438 1001.328125 1428.25 1001.421875 1431.351562 1001.421875 C 1432.171875 1001.421875 1432.980469 1001.410156 1433.789062 1001.398438 C 1433.878906 1001.828125 1433.96875 1002.269531 1434.058594 1002.710938 C 1431.140625 1003.71875 1429.480469 1005.101562 1430.46875 1006.980469 C 1431.199219 1008.359375 1433.039062 1009.261719 1435.5 1009.808594 C 1451.988281 1091.019531 1478.179688 1215.738281 1485.078125 1248.558594 "/>
<path fill-rule="nonzero" fill="rgb(36.083984%, 16.088867%, 51.756287%)" fill-opacity="1" d="M 1426.140625 991.234375 C 1424.148438 991.234375 1422.308594 991.039062 1420.601562 990.753906 C 1420.210938 988.292969 1419.828125 985.863281 1419.449219 983.421875 C 1422.679688 984.621094 1426.660156 985.34375 1430.648438 985.769531 C 1430.988281 987.460938 1431.328125 989.179688 1431.679688 990.933594 C 1429.910156 991.121094 1428.050781 991.234375 1426.140625 991.234375 "/>
<path fill-rule="nonzero" fill="rgb(36.083984%, 16.088867%, 51.756287%)" fill-opacity="1" d="M 1428.199219 973.488281 C 1427.351562 973.386719 1426.539062 973.28125 1425.75 973.179688 C 1422.539062 972.75 1419.828125 972.324219 1417.691406 972.148438 C 1413.148438 942.707031 1409.21875 915.207031 1406.441406 892.429688 C 1406.140625 882.140625 1415.570312 752.710938 1437 737.289062 C 1437 737.289062 1419.289062 917.859375 1421.71875 938.570312 C 1422.160156 942.3125 1424.558594 955.078125 1428.199219 973.488281 "/>
<path fill-rule="nonzero" fill="rgb(88.28125%, 69.726562%, 71.289062%)" fill-opacity="1" d="M 1435.5 1009.808594 C 1433.039062 1009.261719 1431.199219 1008.359375 1430.46875 1006.980469 C 1429.480469 1005.101562 1431.140625 1003.71875 1434.058594 1002.710938 C 1434.53125 1005.03125 1435.011719 1007.398438 1435.5 1009.808594 M 1431.351562 1001.421875 C 1428.25 1001.421875 1425.148438 1001.328125 1422.25 1001.109375 C 1421.699219 997.648438 1421.140625 994.183594 1420.601562 990.753906 C 1422.308594 991.039062 1424.148438 991.234375 1426.140625 991.234375 C 1428.050781 991.234375 1429.910156 991.121094 1431.679688 990.933594 C 1432.359375 994.3125 1433.070312 997.804688 1433.789062 1001.398438 C 1432.980469 1001.410156 1432.171875 1001.421875 1431.351562 1001.421875 M 1430.648438 985.769531 C 1426.660156 985.34375 1422.679688 984.621094 1419.449219 983.421875 C 1418.851562 979.636719 1418.269531 975.878906 1417.691406 972.148438 C 1419.828125 972.324219 1422.539062 972.75 1425.75 973.179688 C 1426.539062 973.28125 1427.351562 973.386719 1428.199219 973.488281 C 1428.960938 977.347656 1429.78125 981.449219 1430.648438 985.769531 "/>
<path fill-rule="nonzero" fill="rgb(36.083984%, 16.088867%, 51.756287%)" fill-opacity="1" d="M 1558.601562 1019.539062 L 1558.871094 1017.511719 L 1560.261719 1017.820312 C 1559.238281 1018.980469 1558.601562 1019.539062 1558.601562 1019.539062 M 1558.878906 1017.421875 L 1561.160156 1000.289062 C 1561.160156 1000.289062 1573.839844 975.503906 1562.339844 963.269531 C 1557.640625 957.367188 1550.511719 956.980469 1548.71875 956.980469 C 1548.441406 956.980469 1548.289062 956.988281 1548.289062 956.988281 L 1558.601562 942.578125 C 1558.601562 942.578125 1575 958.429688 1573.289062 983.285156 C 1572.019531 1001.621094 1564.628906 1012.628906 1560.839844 1017.148438 L 1558.878906 1017.421875 "/>
<path fill-rule="nonzero" fill="rgb(88.28125%, 69.726562%, 71.289062%)" fill-opacity="1" d="M 1561.160156 1000.289062 L 1564.988281 990.398438 C 1568.261719 976.144531 1566.070312 967.964844 1562.339844 963.269531 C 1573.839844 975.503906 1561.160156 1000.289062 1561.160156 1000.289062 M 1548.289062 956.988281 L 1548.289062 956.988281 "/>
<path fill-rule="nonzero" fill="rgb(32.542419%, 14.501953%, 47.068787%)" fill-opacity="1" d="M 1560.261719 1017.820312 L 1558.871094 1017.511719 L 1558.878906 1017.421875 L 1560.839844 1017.148438 C 1560.640625 1017.390625 1560.441406 1017.621094 1560.261719 1017.820312 "/>
<path fill-rule="nonzero" fill="rgb(70.117188%, 82.421875%, 27.43988%)" fill-opacity="1" d="M 1717.53125 174.171875 C 1694.789062 176.980469 1678.480469 197.890625 1681.300781 220.640625 L 1700.25 373.609375 C 1703.070312 396.359375 1723.988281 412.660156 1746.71875 409.839844 L 1796.019531 403.738281 L 1782.089844 472.328125 C 1780.730469 479.070312 1784.050781 481.128906 1789.488281 476.929688 L 1871.089844 413.691406 L 1839.539062 159.050781 L 1717.53125 174.171875 "/>
<path fill-rule="nonzero" fill="rgb(49.414062%, 68.943787%, 19.993591%)" fill-opacity="1" d="M 1867.621094 385.71875 L 1871.089844 413.691406 L 1789.488281 476.929688 C 1784.039062 481.128906 1780.730469 479.070312 1782.089844 472.320312 L 1786.988281 448.199219 L 1867.621094 385.71875 "/>
<path fill-rule="nonzero" fill="rgb(49.414062%, 68.943787%, 19.993591%)" fill-opacity="1" d="M 1961.550781 143.929688 L 1839.539062 159.050781 L 1871.089844 413.691406 L 1897.078125 393.558594 C 1898.269531 392.628906 1899.089844 391.730469 1899.660156 390.898438 L 1990.761719 379.609375 C 2013.5 376.789062 2029.800781 355.871094 2026.980469 333.128906 L 2008.03125 180.160156 C 2005.210938 157.410156 1984.300781 141.109375 1961.550781 143.929688 "/>
<path fill-rule="nonzero" fill="rgb(99.21875%, 60.742188%, 7.446289%)" fill-opacity="1" d="M 2092.078125 70.578125 C 2110.011719 68.359375 2126.488281 81.199219 2128.710938 99.140625 L 2143.640625 219.691406 C 2145.871094 237.609375 2133.019531 254.101562 2115.101562 256.320312 L 2076.25 261.128906 L 2100.089844 310.878906 C 2102.421875 315.761719 2100.289062 317.980469 2095.320312 315.808594 L 2020.789062 283.179688 L 1995.929688 82.5 L 2092.078125 70.578125 "/>
<path fill-rule="nonzero" fill="rgb(99.21875%, 72.068787%, 7.446289%)" fill-opacity="1" d="M 2018.058594 261.128906 L 2020.789062 283.179688 L 2095.320312 315.820312 C 2100.289062 317.980469 2102.421875 315.769531 2100.078125 310.878906 L 2091.699219 293.371094 L 2018.058594 261.128906 "/>
<path fill-rule="nonzero" fill="rgb(99.21875%, 72.068787%, 7.446289%)" fill-opacity="1" d="M 1899.761719 94.410156 L 1995.929688 82.5 L 2020.789062 283.179688 L 1997.050781 272.789062 C 1995.960938 272.320312 1995.171875 271.789062 1994.570312 271.25 L 1922.78125 280.148438 C 1904.851562 282.371094 1888.378906 269.519531 1886.148438 251.589844 L 1871.21875 131.039062 C 1869 113.109375 1881.828125 96.628906 1899.761719 94.410156 "/>
<path fill-rule="nonzero" fill="rgb(100%, 100%, 100%)" fill-opacity="1" d="M 1968.320312 187.800781 C 1969.648438 198.488281 1962.050781 208.230469 1951.371094 209.558594 C 1940.679688 210.878906 1930.941406 203.289062 1929.609375 192.601562 C 1928.289062 181.910156 1935.878906 172.160156 1946.570312 170.839844 C 1957.25 169.519531 1967 177.109375 1968.320312 187.800781 "/>
<path fill-rule="nonzero" fill="rgb(100%, 100%, 100%)" fill-opacity="1" d="M 2027.710938 180.441406 C 2029.039062 191.128906 2021.449219 200.871094 2010.761719 202.199219 C 2000.070312 203.519531 1990.328125 195.929688 1989.011719 185.238281 C 1987.679688 174.550781 1995.28125 164.808594 2005.960938 163.480469 C 2016.648438 162.160156 2026.390625 169.75 2027.710938 180.441406 "/>
<path fill-rule="nonzero" fill="rgb(100%, 100%, 100%)" fill-opacity="1" d="M 2087.109375 173.078125 C 2088.441406 183.769531 2080.839844 193.511719 2070.160156 194.839844 C 2059.460938 196.160156 2049.71875 188.570312 2048.390625 177.878906 C 2047.070312 167.191406 2054.671875 157.449219 2065.359375 156.121094 C 2076.039062 154.800781 2085.789062 162.390625 2087.109375 173.078125 "/>
</svg>
